<svg xmlns="http://www.w3.org/2000/svg" viewBox="0 0 2000 450" height="50">
  <path fill="#4a4a4a" d="M 1254.5,137.5 C 1288.09,136.732 1319.43,144.732 1348.5,161.5C 1340,177.833 1331.5,194.167 1323,210.5C 1302.98,197.714 1281.15,191.214 1257.5,191C 1249.61,192.884 1246.78,197.718 1249,205.5C 1252.46,209.994 1256.96,213.16 1262.5,215C 1280.38,220.404 1298.05,226.404 1315.5,233C 1345.94,246.71 1358.44,270.21 1353,303.5C 1347.19,331.879 1330.02,349.379 1301.5,356C 1257.17,363.81 1215.51,356.477 1176.5,334C 1184.69,316.445 1193.53,299.279 1203,282.5C 1219.05,292.271 1236.21,299.437 1254.5,304C 1263.47,305.332 1272.47,305.665 1281.5,305C 1288.21,303.41 1290.71,299.244 1289,292.5C 1287.5,289.667 1285.33,287.5 1282.5,286C 1265.96,279.959 1249.29,274.292 1232.5,269C 1189.95,253.064 1176.45,223.564 1192,180.5C 1201.26,161.239 1216.1,148.406 1236.5,142C 1242.7,140.799 1248.7,139.299 1254.5,137.5 Z"/>
  <path fill="#4a4a4a" d="M 121.5,139.5 C 153.835,139.333 186.168,139.5 218.5,140C 279.134,148.469 311.134,183.303 314.5,244.5C 315.861,279.614 303.861,309.114 278.5,333C 263.896,343.987 247.563,351.321 229.5,355C 193.522,356.424 157.522,356.924 121.5,356.5C 121.5,284.167 121.5,211.833 121.5,139.5 Z"/>
  <path fill="#4a4a4a" d="M 341.5,139.5 C 392.167,139.5 442.833,139.5 493.5,139.5C 493.5,156.833 493.5,174.167 493.5,191.5C 462.833,191.5 432.167,191.5 401.5,191.5C 400.506,201.653 400.172,211.986 400.5,222.5C 426.833,222.5 453.167,222.5 479.5,222.5C 479.5,238.5 479.5,254.5 479.5,270.5C 453.5,270.5 427.5,270.5 401.5,270.5C 400.505,281.988 400.172,293.655 400.5,305.5C 432.167,305.5 463.833,305.5 495.5,305.5C 495.5,322.5 495.5,339.5 495.5,356.5C 444.167,356.5 392.833,356.5 341.5,356.5C 341.5,284.167 341.5,211.833 341.5,139.5 Z"/>
  <path fill="#4a4a4a" d="M 650.5,139.5 C 671.34,139.169 692.007,139.503 712.5,140.5C 686.439,211.848 660.272,283.181 634,354.5C 625.732,355.818 617.232,356.484 608.5,356.5C 599.925,356.493 591.425,356.16 583,355.5C 556.555,283.495 529.722,211.662 502.5,140C 523.831,139.5 545.164,139.333 566.5,139.5C 580.019,186.239 593.852,232.905 608,279.5C 622.486,232.881 636.652,186.214 650.5,139.5 Z"/>
  <path fill="#f86942" d="M 894.5,356.5 C 894.667,318.499 894.5,280.499 894,242.5C 893.487,243.527 892.987,244.527 892.5,245.5C 880.888,271.055 869.555,296.722 858.5,322.5C 847.252,322.821 836.085,322.487 825,321.5C 813.213,295.596 801.713,269.596 790.5,243.5C 790.44,242.957 790.107,242.624 789.5,242.5C 788.5,280.494 788.167,318.494 788.5,356.5C 768.833,356.5 749.167,356.5 729.5,356.5C 729.5,284.167 729.5,211.833 729.5,139.5C 751.51,139.167 773.51,139.5 795.5,140.5C 810.717,174.328 826.217,207.995 842,241.5C 857.5,207.833 873,174.167 888.5,140.5C 910.156,139.5 931.823,139.167 953.5,139.5C 953.5,211.833 953.5,284.167 953.5,356.5C 933.833,356.5 914.167,356.5 894.5,356.5 Z"/>
  <path fill="#f86942" d="M 1033.5,139.5 C 1046.32,170.474 1059.15,201.474 1072,232.5C 1085.53,201.441 1099.03,170.441 1112.5,139.5C 1134.01,139.169 1155.34,139.503 1176.5,140.5C 1151.83,188.5 1127.17,236.5 1102.5,284.5C 1101.5,308.328 1101.17,332.328 1101.5,356.5C 1081.83,356.5 1062.17,356.5 1042.5,356.5C 1042.67,331.831 1042.5,307.164 1042,282.5C 1017.58,235.327 993.413,187.994 969.5,140.5C 990.66,139.503 1011.99,139.169 1033.5,139.5 Z"/>
  <path fill="#4a4a4a" d="M 1380.5,139.5 C 1431.17,139.5 1481.83,139.5 1532.5,139.5C 1532.5,156.833 1532.5,174.167 1532.5,191.5C 1501.83,191.5 1471.17,191.5 1440.5,191.5C 1440.5,201.833 1440.5,212.167 1440.5,222.5C 1466.83,222.5 1493.17,222.5 1519.5,222.5C 1519.5,238.5 1519.5,254.5 1519.5,270.5C 1493.17,270.5 1466.83,270.5 1440.5,270.5C 1440.5,282.167 1440.5,293.833 1440.5,305.5C 1472.17,305.5 1503.83,305.5 1535.5,305.5C 1535.5,322.5 1535.5,339.5 1535.5,356.5C 1483.83,356.5 1432.17,356.5 1380.5,356.5C 1380.5,284.167 1380.5,211.833 1380.5,139.5 Z"/>
  <path fill="#4a4a4a" d="M 1623.5,304.5 C 1656,305.498 1688.66,305.832 1721.5,305.5C 1721.5,322.5 1721.5,339.5 1721.5,356.5C 1668.83,356.5 1616.17,356.5 1563.5,356.5C 1563.5,284.167 1563.5,211.833 1563.5,139.5C 1583.5,139.5 1603.5,139.5 1623.5,139.5C 1623.5,194.5 1623.5,249.5 1623.5,304.5 Z"/>
  <path fill="#4a4a4a" d="M 1744.5,139.5 C 1744.5,211.833 1744.5,284.167 1744.5,356.5C 1764.17,356.5 1783.83,356.5 1803.5,356.5C 1783.67,357.497 1763.67,357.83 1743.5,357.5C 1743.17,284.665 1743.5,211.998 1744.5,139.5 Z"/>
  <path fill="#4a4a4a" d="M 1744.5,139.5 C 1794.17,139.5 1843.83,139.5 1893.5,139.5C 1893.5,156.833 1893.5,174.167 1893.5,191.5C 1863.5,191.5 1833.5,191.5 1803.5,191.5C 1803.5,203.5 1803.5,215.5 1803.5,227.5C 1827.83,227.5 1852.17,227.5 1876.5,227.5C 1876.5,243.5 1876.5,259.5 1876.5,275.5C 1852.17,275.5 1827.83,275.5 1803.5,275.5C 1803.5,302.5 1803.5,329.5 1803.5,356.5C 1783.83,356.5 1764.17,356.5 1744.5,356.5C 1744.5,284.167 1744.5,211.833 1744.5,139.5 Z"/>
  <path fill="#262626" d="M 181.5,191.5 C 193.872,191.185 206.205,191.685 218.5,193C 242.632,202.228 254.299,219.894 253.5,246C 254.515,263.112 249.681,278.279 239,291.5C 229.996,299.446 219.496,303.779 207.5,304.5C 198.833,304.5 190.167,304.5 181.5,304.5C 181.5,266.833 181.5,229.167 181.5,191.5 Z"/>
</svg>
